<mxfile host="app.diagrams.net" modified="2022-10-10T07:51:36.636Z" agent="5.0 (Windows NT 6.1; Win64; x64) AppleWebKit/537.36 (KHTML, like Gecko) Chrome/106.0.0.0 Safari/537.36" etag="t5BXlu5ULglqfY_Ri0fa" version="20.4.0" type="github">
  <diagram id="kgpKYQtTHZ0yAKxKKP6v" name="Page-1">
    <mxGraphModel dx="868" dy="450" grid="1" gridSize="10" guides="1" tooltips="1" connect="1" arrows="1" fold="1" page="1" pageScale="1" pageWidth="850" pageHeight="1100" math="0" shadow="0">
      <root>
        <mxCell id="0" />
        <mxCell id="1" parent="0" />
        <mxCell id="8Sy3oIbI1-4WFIKuDqXK-32" value="opt 前置校验" style="shape=umlFrame;whiteSpace=wrap;html=1;" vertex="1" parent="1">
          <mxGeometry x="20" y="240" width="370" height="180" as="geometry" />
        </mxCell>
        <mxCell id="8Sy3oIbI1-4WFIKuDqXK-1" value="手机端" style="shape=umlLifeline;perimeter=lifelinePerimeter;whiteSpace=wrap;html=1;container=1;collapsible=0;recursiveResize=0;outlineConnect=0;" vertex="1" parent="1">
          <mxGeometry x="40" y="180" width="100" height="990" as="geometry" />
        </mxCell>
        <mxCell id="8Sy3oIbI1-4WFIKuDqXK-18" value="" style="html=1;points=[];perimeter=orthogonalPerimeter;" vertex="1" parent="8Sy3oIbI1-4WFIKuDqXK-1">
          <mxGeometry x="45" y="80" width="10" height="140" as="geometry" />
        </mxCell>
        <mxCell id="8Sy3oIbI1-4WFIKuDqXK-34" value="" style="html=1;points=[];perimeter=orthogonalPerimeter;" vertex="1" parent="8Sy3oIbI1-4WFIKuDqXK-1">
          <mxGeometry x="45" y="280" width="10" height="340" as="geometry" />
        </mxCell>
        <mxCell id="8Sy3oIbI1-4WFIKuDqXK-2" value="server" style="shape=umlLifeline;perimeter=lifelinePerimeter;whiteSpace=wrap;html=1;container=1;collapsible=0;recursiveResize=0;outlineConnect=0;" vertex="1" parent="1">
          <mxGeometry x="210" y="180" width="100" height="990" as="geometry" />
        </mxCell>
        <mxCell id="8Sy3oIbI1-4WFIKuDqXK-14" value="" style="html=1;points=[];perimeter=orthogonalPerimeter;" vertex="1" parent="8Sy3oIbI1-4WFIKuDqXK-2">
          <mxGeometry x="45" y="80" width="10" height="120" as="geometry" />
        </mxCell>
        <mxCell id="8Sy3oIbI1-4WFIKuDqXK-26" value="" style="html=1;points=[];perimeter=orthogonalPerimeter;" vertex="1" parent="8Sy3oIbI1-4WFIKuDqXK-2">
          <mxGeometry x="50" y="120" width="10" height="40" as="geometry" />
        </mxCell>
        <mxCell id="8Sy3oIbI1-4WFIKuDqXK-27" value="前置j校验&lt;br&gt;人脸是否为空&lt;br&gt;合成id是否为空" style="edgeStyle=orthogonalEdgeStyle;html=1;align=left;spacingLeft=2;endArrow=block;rounded=0;entryX=1;entryY=0;" edge="1" target="8Sy3oIbI1-4WFIKuDqXK-26" parent="8Sy3oIbI1-4WFIKuDqXK-2">
          <mxGeometry relative="1" as="geometry">
            <mxPoint x="55" y="100" as="sourcePoint" />
            <Array as="points">
              <mxPoint x="85" y="100" />
            </Array>
          </mxGeometry>
        </mxCell>
        <mxCell id="8Sy3oIbI1-4WFIKuDqXK-38" value="return" style="html=1;verticalAlign=bottom;endArrow=open;dashed=1;endSize=8;exitX=0;exitY=0.95;rounded=0;" edge="1" source="8Sy3oIbI1-4WFIKuDqXK-36" parent="8Sy3oIbI1-4WFIKuDqXK-2">
          <mxGeometry relative="1" as="geometry">
            <mxPoint x="-25" y="406" as="targetPoint" />
          </mxGeometry>
        </mxCell>
        <mxCell id="8Sy3oIbI1-4WFIKuDqXK-3" value="animate" style="shape=umlLifeline;perimeter=lifelinePerimeter;whiteSpace=wrap;html=1;container=1;collapsible=0;recursiveResize=0;outlineConnect=0;" vertex="1" parent="1">
          <mxGeometry x="425" y="180" width="100" height="1000" as="geometry" />
        </mxCell>
        <mxCell id="8Sy3oIbI1-4WFIKuDqXK-4" value="AI" style="shape=umlLifeline;perimeter=lifelinePerimeter;whiteSpace=wrap;html=1;container=1;collapsible=0;recursiveResize=0;outlineConnect=0;" vertex="1" parent="1">
          <mxGeometry x="590" y="180" width="100" height="300" as="geometry" />
        </mxCell>
        <mxCell id="8Sy3oIbI1-4WFIKuDqXK-5" value="db" style="shape=umlLifeline;perimeter=lifelinePerimeter;whiteSpace=wrap;html=1;container=1;collapsible=0;recursiveResize=0;outlineConnect=0;" vertex="1" parent="1">
          <mxGeometry x="780" y="180" width="100" height="300" as="geometry" />
        </mxCell>
        <mxCell id="8Sy3oIbI1-4WFIKuDqXK-15" value="发起合成" style="html=1;verticalAlign=bottom;endArrow=block;entryX=0;entryY=0;rounded=0;" edge="1" target="8Sy3oIbI1-4WFIKuDqXK-14" parent="1" source="8Sy3oIbI1-4WFIKuDqXK-1">
          <mxGeometry relative="1" as="geometry">
            <mxPoint x="185" y="260" as="sourcePoint" />
          </mxGeometry>
        </mxCell>
        <mxCell id="8Sy3oIbI1-4WFIKuDqXK-16" value="校验未通过，提示报错" style="html=1;verticalAlign=bottom;endArrow=open;dashed=1;endSize=8;exitX=0;exitY=0.95;rounded=0;" edge="1" source="8Sy3oIbI1-4WFIKuDqXK-14" parent="1" target="8Sy3oIbI1-4WFIKuDqXK-18">
          <mxGeometry relative="1" as="geometry">
            <mxPoint x="185" y="336" as="targetPoint" />
          </mxGeometry>
        </mxCell>
        <mxCell id="8Sy3oIbI1-4WFIKuDqXK-37" value="发起合成" style="html=1;verticalAlign=bottom;endArrow=block;entryX=0;entryY=0;rounded=0;" edge="1" target="8Sy3oIbI1-4WFIKuDqXK-36" parent="1" source="8Sy3oIbI1-4WFIKuDqXK-34">
          <mxGeometry relative="1" as="geometry">
            <mxPoint x="185" y="510" as="sourcePoint" />
          </mxGeometry>
        </mxCell>
        <mxCell id="8Sy3oIbI1-4WFIKuDqXK-36" value="" style="html=1;points=[];perimeter=orthogonalPerimeter;" vertex="1" parent="1">
          <mxGeometry x="255" y="470" width="10" height="340" as="geometry" />
        </mxCell>
      </root>
    </mxGraphModel>
  </diagram>
</mxfile>
